<svg width="123" height="49" viewBox="0 0 123 49" fill="none" xmlns="http://www.w3.org/2000/svg">
<path d="M17.5642 34.242C18.6282 34.242 19.5476 34.4427 20.3222 34.844C21.1062 35.236 21.7036 35.8007 22.1142 36.538C22.5342 37.2753 22.7442 38.1433 22.7442 39.142C22.7442 40.1407 22.5342 41.0087 22.1142 41.746C21.7036 42.474 21.1062 43.034 20.3222 43.426C19.5476 43.8087 18.6282 44 17.5642 44H14.5262V34.242H17.5642ZM17.5642 42.95C18.8242 42.95 19.7856 42.6187 20.4482 41.956C21.1109 41.284 21.4422 40.346 21.4422 39.142C21.4422 37.9287 21.1062 36.9813 20.4342 36.3C19.7716 35.6187 18.8149 35.278 17.5642 35.278H15.8002V42.95H17.5642ZM32.1927 41.83H27.9367L27.1527 44H25.8087L29.3367 34.298H30.8067L34.3207 44H32.9767L32.1927 41.83ZM31.8287 40.794L30.0647 35.866L28.3007 40.794H31.8287ZM42.9963 44L40.6723 40.01H39.1323V44H37.8583V34.242H41.0083C41.7456 34.242 42.3663 34.368 42.8703 34.62C43.3836 34.872 43.7663 35.2127 44.0183 35.642C44.2703 36.0713 44.3963 36.5613 44.3963 37.112C44.3963 37.784 44.2003 38.3767 43.8083 38.89C43.4256 39.4033 42.8469 39.744 42.0723 39.912L44.5223 44H42.9963ZM39.1323 38.988H41.0083C41.6989 38.988 42.2169 38.82 42.5623 38.484C42.9076 38.1387 43.0803 37.6813 43.0803 37.112C43.0803 36.5333 42.9076 36.0853 42.5623 35.768C42.2263 35.4507 41.7083 35.292 41.0083 35.292H39.1323V38.988ZM53.6679 44L49.6499 39.548V44H48.3759V34.242H49.6499V38.764L53.6819 34.242H55.2919L50.8679 39.128L55.3339 44H53.6679ZM74.3871 34.312V44H73.1131V36.776L69.8931 44H68.9971L65.7631 36.762V44H64.4891V34.312H65.8611L69.4451 42.32L73.0291 34.312H74.3871ZM82.9717 44.098C82.0664 44.098 81.2404 43.888 80.4937 43.468C79.7471 43.0387 79.1544 42.446 78.7157 41.69C78.2864 40.9247 78.0717 40.066 78.0717 39.114C78.0717 38.162 78.2864 37.308 78.7157 36.552C79.1544 35.7867 79.7471 35.194 80.4937 34.774C81.2404 34.3447 82.0664 34.13 82.9717 34.13C83.8864 34.13 84.7171 34.3447 85.4637 34.774C86.2104 35.194 86.7984 35.782 87.2277 36.538C87.6571 37.294 87.8717 38.1527 87.8717 39.114C87.8717 40.0753 87.6571 40.934 87.2277 41.69C86.7984 42.446 86.2104 43.0387 85.4637 43.468C84.7171 43.888 83.8864 44.098 82.9717 44.098ZM82.9717 42.992C83.6531 42.992 84.2644 42.8333 84.8057 42.516C85.3564 42.1987 85.7857 41.746 86.0937 41.158C86.4111 40.57 86.5697 39.8887 86.5697 39.114C86.5697 38.33 86.4111 37.6487 86.0937 37.07C85.7857 36.482 85.3611 36.0293 84.8197 35.712C84.2784 35.3947 83.6624 35.236 82.9717 35.236C82.2811 35.236 81.6651 35.3947 81.1237 35.712C80.5824 36.0293 80.1531 36.482 79.8357 37.07C79.5277 37.6487 79.3737 38.33 79.3737 39.114C79.3737 39.8887 79.5277 40.57 79.8357 41.158C80.1531 41.746 80.5824 42.1987 81.1237 42.516C81.6744 42.8333 82.2904 42.992 82.9717 42.992ZM94.5916 34.242C95.6556 34.242 96.5749 34.4427 97.3496 34.844C98.1336 35.236 98.7309 35.8007 99.1416 36.538C99.5616 37.2753 99.7716 38.1433 99.7716 39.142C99.7716 40.1407 99.5616 41.0087 99.1416 41.746C98.7309 42.474 98.1336 43.034 97.3496 43.426C96.5749 43.8087 95.6556 44 94.5916 44H91.5536V34.242H94.5916ZM94.5916 42.95C95.8516 42.95 96.8129 42.6187 97.4756 41.956C98.1383 41.284 98.4696 40.346 98.4696 39.142C98.4696 37.9287 98.1336 36.9813 97.4616 36.3C96.7989 35.6187 95.8423 35.278 94.5916 35.278H92.8276V42.95H94.5916ZM104.726 35.278V38.54H108.282V39.59H104.726V42.95H108.702V44H103.452V34.228H108.702V35.278H104.726Z" fill="white"/>
<g clip-path="url(#clip0_1_191)">
<path d="M56.4332 5.34005C56.4332 3.63645 56.8391 2.03985 57.5303 0.599617C57.7552 0.127769 57.5632 -0.121872 57.0722 0.0591861C52.3655 1.81216 49 6.3002 49 11.614C49 18.453 54.5433 24 61.384 24C66.697 24 71.187 20.634 72.9397 15.9319C73.1235 15.4409 72.8711 15.2489 72.3994 15.4738C70.9566 16.1624 69.3603 16.5684 67.657 16.5684C61.4553 16.5656 56.4332 11.5399 56.4332 5.34005Z" fill="white"/>
</g>
<defs>
<clipPath id="clip0_1_191">
<rect width="24" height="24" fill="white" transform="translate(49)"/>
</clipPath>
</defs>
</svg>
