<svg width="128" height="49" viewBox="0 0 128 49" fill="none" xmlns="http://www.w3.org/2000/svg">
<g clip-path="url(#clip0_1_199)">
<path d="M64.0204 5.43641C60.4435 5.42817 57.5469 8.31015 57.5414 11.8775C57.5359 15.4449 60.4161 18.3517 63.96 18.3627C67.5451 18.3709 70.4445 15.4862 70.45 11.905C70.45 8.33492 67.5781 5.44193 64.0204 5.43641ZM57.599 15.5715C57.3466 15.1531 56.82 15.01 56.3729 15.2412C56.2467 15.3073 56.126 15.3816 56.0026 15.4532C55.3168 15.8495 54.6283 16.2404 53.948 16.645C53.5585 16.8763 53.4049 17.3002 53.5311 17.7158C53.6518 18.1094 54.0084 18.3709 54.4473 18.3682C54.5707 18.3792 54.7106 18.3434 54.8368 18.2718C55.6679 17.7956 56.5045 17.3277 57.3247 16.8295C57.7581 16.5652 57.8623 16.0064 57.599 15.5715ZM70.3101 8.02387C70.4253 8.39823 70.7929 8.67349 71.1851 8.67624C71.3305 8.68175 71.4731 8.65147 71.5966 8.58265C72.4359 8.1037 73.278 7.63025 74.1037 7.13478C74.5233 6.88154 74.6358 6.33928 74.3999 5.91813C74.1613 5.49423 73.6456 5.29604 73.2149 5.53001C72.3454 6.00346 71.4923 6.50168 70.6447 7.01092C70.3128 7.21461 70.1949 7.64677 70.3101 8.02387ZM64.1932 4.6189C64.7089 4.61615 65.1093 4.20601 65.1121 3.6665C65.1148 3.21507 65.1121 2.76089 65.1121 2.30946V0.927656C65.1011 0.404661 64.7034 0.00278038 64.1959 1.38189e-05C63.6775 -0.00272483 63.266 0.401908 63.2633 0.935914C63.2578 1.84978 63.2578 2.76364 63.2633 3.67751C63.266 4.20876 63.6775 4.6189 64.1932 4.6189ZM64.1959 19.3784C63.6775 19.3756 63.266 19.7803 63.2633 20.3143C63.2578 21.2281 63.2578 22.142 63.2633 23.0559C63.266 23.5899 63.6747 24 64.1904 24C64.7061 23.9972 65.1066 23.5871 65.1093 23.0476C65.1121 22.5962 65.1093 22.142 65.1093 21.6878V20.306C65.1011 19.7858 64.7034 19.3811 64.1959 19.3784ZM55.6789 12.8299C56.2 12.8272 56.5923 12.4556 56.6142 11.9491C56.6362 11.4399 56.2604 10.9967 55.7365 10.9857C54.7847 10.9664 53.8328 10.9664 52.8838 10.9857C52.3736 10.9967 51.984 11.4426 52.0005 11.9271C52.0115 12.4391 52.4202 12.8272 52.9441 12.8299C53.4049 12.8327 53.863 12.8299 54.3238 12.8299C54.7764 12.8299 55.2263 12.8327 55.6789 12.8299ZM75.1186 10.9857C74.1668 10.9664 73.2149 10.9664 72.2659 10.9857C71.7557 10.9967 71.3661 11.4426 71.3826 11.9271C71.3963 12.4363 71.805 12.8272 72.3289 12.8299C72.7898 12.8327 73.2478 12.8299 73.7087 12.8299C74.1613 12.8299 74.6111 12.8327 75.0637 12.8299C75.5849 12.8272 75.9771 12.4556 75.9991 11.9491C76.021 11.4399 75.6452 10.9967 75.1186 10.9857ZM68.2501 5.81628C68.5738 5.81078 68.8481 5.68966 69.0126 5.41165C69.5064 4.58036 69.9974 3.74357 70.4637 2.89852C70.6996 2.47187 70.5213 1.94061 70.1044 1.69839C69.6847 1.4534 69.1388 1.54974 68.8865 1.96539C68.379 2.79943 67.8853 3.64173 67.4244 4.50054C67.1035 5.10061 67.5726 5.81353 68.2501 5.81628ZM74.0488 16.645C73.2588 16.1798 72.4633 15.7174 71.6651 15.2687C71.1906 15.0017 70.6475 15.1531 70.3896 15.6018C70.1236 16.0642 70.2772 16.5982 70.7709 16.8845C71.5362 17.3304 72.3043 17.7736 73.0723 18.214C73.2314 18.3049 73.3987 18.3792 73.577 18.3654C73.9994 18.3654 74.3643 18.0929 74.4767 17.7075C74.5974 17.2947 74.4383 16.8763 74.0488 16.645ZM59.0418 5.16667C59.2201 5.46946 59.4889 5.62911 59.8455 5.62639C60.5559 5.6236 60.9948 4.88866 60.6465 4.25556C60.1966 3.44354 59.7303 2.63978 59.2558 1.84427C58.9815 1.38459 58.4411 1.25522 57.9967 1.51396C57.5551 1.77546 57.4015 2.31222 57.6621 2.77741C58.1147 3.57842 58.5782 4.37392 59.0418 5.16667ZM53.9645 7.20085C54.749 7.66053 55.539 8.11196 56.3262 8.56889C56.4744 8.65422 56.6307 8.69826 56.7514 8.69276C57.215 8.69001 57.577 8.42025 57.6895 8.03213C57.8047 7.62475 57.6538 7.2036 57.2781 6.98339C56.4826 6.51269 55.6816 6.0475 54.8752 5.59332C54.4034 5.32632 53.852 5.48322 53.5997 5.93189C53.3391 6.39433 53.4845 6.92008 53.9645 7.20085ZM60.427 18.492C59.9635 18.2168 59.4149 18.3709 59.1241 18.8691C58.677 19.6371 58.2354 20.4078 57.791 21.1758C57.7032 21.33 57.6374 21.4896 57.6484 21.6575C57.6456 22.0924 57.9089 22.4503 58.3012 22.5659C58.7181 22.6898 59.1351 22.5356 59.3655 22.1475C59.8263 21.3685 60.2734 20.584 60.7233 19.7995C61.0031 19.3096 60.8769 18.759 60.427 18.492ZM68.9715 18.671C68.678 18.17 68.1321 18.0158 67.6713 18.2883C67.2215 18.5553 67.0925 19.1059 67.3723 19.5958C67.5945 19.9895 67.8249 20.3776 68.0526 20.7712C68.283 21.1703 68.5024 21.5722 68.7438 21.9658C68.9742 22.3429 69.4104 22.4943 69.8191 22.365C70.1949 22.2466 70.45 21.886 70.45 21.4401C70.461 21.2969 70.3979 21.1345 70.3101 20.9804C69.863 20.2097 69.4214 19.4389 68.9715 18.671Z" fill="white"/>
</g>
<path d="M16.5893 42.964H20.0053V44H15.3153V34.242H16.5893V42.964ZM24.6323 34.242V44H23.3583V34.242H24.6323ZM36.1956 37.07C35.9249 36.5007 35.5329 36.062 35.0196 35.754C34.5063 35.4367 33.9089 35.278 33.2276 35.278C32.5463 35.278 31.9303 35.4367 31.3796 35.754C30.8383 36.062 30.4089 36.51 30.0916 37.098C29.7836 37.6767 29.6296 38.3487 29.6296 39.114C29.6296 39.8793 29.7836 40.5513 30.0916 41.13C30.4089 41.7087 30.8383 42.1567 31.3796 42.474C31.9303 42.782 32.5463 42.936 33.2276 42.936C34.1796 42.936 34.9636 42.6513 35.5796 42.082C36.1956 41.5127 36.5549 40.7427 36.6576 39.772H32.7656V38.736H38.0156V39.716C37.9409 40.5187 37.6889 41.256 37.2596 41.928C36.8303 42.5907 36.2656 43.118 35.5656 43.51C34.8656 43.8927 34.0863 44.084 33.2276 44.084C32.3223 44.084 31.4963 43.874 30.7496 43.454C30.0029 43.0247 29.4103 42.432 28.9716 41.676C28.5423 40.92 28.3276 40.066 28.3276 39.114C28.3276 38.162 28.5423 37.308 28.9716 36.552C29.4103 35.7867 30.0029 35.194 30.7496 34.774C31.4963 34.3447 32.3223 34.13 33.2276 34.13C34.2636 34.13 35.1783 34.3867 35.9716 34.9C36.7743 35.4133 37.3576 36.1367 37.7216 37.07H36.1956ZM49.2181 34.242V44H47.9441V39.576H42.9741V44H41.7001V34.242H42.9741V38.526H47.9441V34.242H49.2181ZM59.3994 34.242V35.278H56.7394V44H55.4654V35.278H52.7914V34.242H59.3994ZM78.5981 34.312V44H77.3241V36.776L74.1041 44H73.2081L69.9741 36.762V44H68.7001V34.312H70.0721L73.6561 42.32L77.2401 34.312H78.5981ZM87.1827 44.098C86.2773 44.098 85.4513 43.888 84.7047 43.468C83.958 43.0387 83.3653 42.446 82.9267 41.69C82.4973 40.9247 82.2827 40.066 82.2827 39.114C82.2827 38.162 82.4973 37.308 82.9267 36.552C83.3653 35.7867 83.958 35.194 84.7047 34.774C85.4513 34.3447 86.2773 34.13 87.1827 34.13C88.0973 34.13 88.928 34.3447 89.6747 34.774C90.4213 35.194 91.0093 35.782 91.4387 36.538C91.868 37.294 92.0827 38.1527 92.0827 39.114C92.0827 40.0753 91.868 40.934 91.4387 41.69C91.0093 42.446 90.4213 43.0387 89.6747 43.468C88.928 43.888 88.0973 44.098 87.1827 44.098ZM87.1827 42.992C87.864 42.992 88.4753 42.8333 89.0167 42.516C89.5673 42.1987 89.9967 41.746 90.3047 41.158C90.622 40.57 90.7807 39.8887 90.7807 39.114C90.7807 38.33 90.622 37.6487 90.3047 37.07C89.9967 36.482 89.572 36.0293 89.0307 35.712C88.4893 35.3947 87.8733 35.236 87.1827 35.236C86.492 35.236 85.876 35.3947 85.3347 35.712C84.7933 36.0293 84.364 36.482 84.0467 37.07C83.7387 37.6487 83.5847 38.33 83.5847 39.114C83.5847 39.8887 83.7387 40.57 84.0467 41.158C84.364 41.746 84.7933 42.1987 85.3347 42.516C85.8853 42.8333 86.5013 42.992 87.1827 42.992ZM98.8025 34.242C99.8665 34.242 100.786 34.4427 101.561 34.844C102.345 35.236 102.942 35.8007 103.353 36.538C103.773 37.2753 103.983 38.1433 103.983 39.142C103.983 40.1407 103.773 41.0087 103.353 41.746C102.942 42.474 102.345 43.034 101.561 43.426C100.786 43.8087 99.8665 44 98.8025 44H95.7645V34.242H98.8025ZM98.8025 42.95C100.063 42.95 101.024 42.6187 101.687 41.956C102.349 41.284 102.681 40.346 102.681 39.142C102.681 37.9287 102.345 36.9813 101.673 36.3C101.01 35.6187 100.053 35.278 98.8025 35.278H97.0385V42.95H98.8025ZM108.937 35.278V38.54H112.493V39.59H108.937V42.95H112.913V44H107.663V34.228H112.913V35.278H108.937Z" fill="white"/>
<defs>
<clipPath id="clip0_1_199">
<rect width="24" height="24" fill="white" transform="translate(52)"/>
</clipPath>
</defs>
</svg>
